<svg width="21" height="17" viewBox="0 0 21 17" fill="none" xmlns="http://www.w3.org/2000/svg">
<path d="M18.1211 15.9631L4.45009 16.1861C4.25043 16.1872 4.05455 16.1317 3.88509 16.0261C3.69636 15.8979 3.5516 15.7148 3.47039 15.5016C3.38919 15.2884 3.37547 15.0554 3.43109 14.8341L4.07409 11.8121L3.30209 3.27812L0.661086 2.10712C0.406499 1.98846 0.204841 1.77977 0.0949784 1.52127C-0.0148846 1.26277 -0.0251767 0.972754 0.0660857 0.707115C0.108185 0.57359 0.177853 0.450392 0.27058 0.345497C0.363307 0.240602 0.477028 0.156347 0.60438 0.0981852C0.731732 0.0400237 0.869878 0.00925197 1.00988 0.0078618C1.14987 0.00647163 1.2886 0.0344941 1.41709 0.0901153L4.66309 1.52212C4.83637 1.60343 4.98528 1.72879 5.09496 1.88566C5.20463 2.04254 5.27122 2.22545 5.28809 2.41612L5.42909 3.92712L19.2401 5.48111C19.3593 5.49684 19.474 5.53689 19.577 5.59875C19.6801 5.66062 19.7694 5.743 19.8393 5.84079C19.9093 5.93857 19.9584 6.04968 19.9836 6.16722C20.0089 6.28476 20.0097 6.40624 19.9861 6.52412C19.7741 7.83312 18.6261 10.1311 18.3941 11.5571C18.3497 11.8795 18.1908 12.1753 17.9464 12.3902C17.7021 12.6052 17.3885 12.7252 17.0631 12.7281L5.97409 12.7181L5.76409 14.0181L18.0801 13.7961C18.3636 13.7977 18.6352 13.9101 18.8369 14.1093C19.0386 14.3085 19.1545 14.5786 19.1597 14.8621C19.1649 15.1455 19.0591 15.4198 18.8649 15.6263C18.6706 15.8327 18.4033 15.9551 18.1201 15.9671L18.1211 15.9631Z" fill="black"/>
</svg>
