<svg width="40" height="23" viewBox="0 0 40 23" fill="none" xmlns="http://www.w3.org/2000/svg">
<path fill-rule="evenodd" clip-rule="evenodd" d="M38.525 1.55743C38.7977 0.660429 38.525 0 37.2189 0H32.9064C31.809 0 31.303 0.570072 31.0286 1.19929C31.0286 1.19929 28.8354 6.44986 25.7288 9.86043C24.7234 10.8494 24.2666 11.1632 23.7179 11.1632C23.4436 11.1632 23.0312 10.8494 23.0312 9.95079V1.55743C23.0312 0.479714 22.7289 0 21.8155 0H15.0338C14.3487 0 13.9364 0.499428 13.9364 0.974214C13.9364 1.99443 15.4905 2.231 15.6499 5.10271V11.3423C15.6499 12.7108 15.3985 12.9589 14.8498 12.9589C13.3876 12.9589 9.83086 7.68364 7.71979 1.64779C7.31071 0.473143 6.89671 0 5.79436 0H1.47857C0.246429 0 0 0.570072 0 1.19929C0 2.31971 1.46214 7.88572 6.80964 15.2474C10.3746 20.2745 15.3936 23 19.9656 23C22.7076 23 23.046 22.3954 23.046 21.3522V17.5523C23.046 16.3415 23.3056 16.1 24.1746 16.1C24.8154 16.1 25.9111 16.4154 28.4707 18.8386C31.395 21.712 31.8764 23 33.5225 23H37.835C39.0671 23 39.6849 22.3954 39.33 21.1994C38.939 20.01 37.5426 18.2834 35.6911 16.2347C34.6856 15.0683 33.1775 13.8115 32.7191 13.1823C32.0801 12.3756 32.2624 12.0159 32.7191 11.2979C32.7191 11.2979 37.9763 4.02664 38.5234 1.55743H38.525Z" fill="black"/>
</svg>
