<svg width="20" height="14" viewBox="0 0 20 14" fill="none" xmlns="http://www.w3.org/2000/svg">
<path d="M10.002 0C5.32653 0 1.47143 3.10148 0 7.30767C1.47143 11.1587 5.32653 14 10.002 14C14.5449 14 18.8755 11.1608 20 7.30767C18.8755 3.10148 14.5449 0 10.002 0ZM15.0306 6.99793C15.0306 9.80413 12.7755 12.09 9.99796 12.09C7.22449 12.09 4.96939 9.80413 4.96939 6.99793C4.96939 4.19174 7.22653 1.91003 9.99796 1.91003C12.7755 1.91003 15.0306 4.19174 15.0306 6.99793Z" fill="black"/>
<path d="M9.99806 4.50552C9.99806 4.0595 10.1185 3.63826 10.3225 3.27691C10.2164 3.26452 10.1083 3.26245 9.99806 3.26245C7.96133 3.26245 6.3042 4.93502 6.3042 6.99992C6.3042 9.06481 7.96133 10.7374 9.99806 10.7374C12.0389 10.7374 13.696 9.06481 13.696 6.99992C13.696 6.88841 13.6878 6.7831 13.6817 6.6716C13.3225 6.88222 12.9082 6.99992 12.4633 6.99992C11.1042 6.99785 9.99806 5.88281 9.99806 4.50552Z" fill="black"/>
</svg>
