<svg width="33" height="32" viewBox="0 0 33 32" fill="none" xmlns="http://www.w3.org/2000/svg">
<path d="M16.4251 10.6644C13.4872 10.6644 11.0896 13.062 11.0896 16C11.0896 18.938 13.4872 21.3356 16.4251 21.3356C19.3631 21.3356 21.7606 18.938 21.7606 16C21.7606 13.062 19.3631 10.6644 16.4251 10.6644ZM32.4277 16C32.4277 13.7905 32.4477 11.601 32.3236 9.39554C32.1995 6.83381 31.6151 4.56027 29.7419 2.68701C27.8647 0.809737 25.5952 0.229345 23.0335 0.105261C20.824 -0.018823 18.6346 0.00119058 16.4291 0.00119058C14.2197 0.00119058 12.0303 -0.018823 9.82481 0.105261C7.26312 0.229345 4.98963 0.813739 3.1164 2.68701C1.23917 4.56427 0.658784 6.83381 0.534702 9.39554C0.410621 11.605 0.430634 13.7945 0.430634 16C0.430634 18.2055 0.410621 20.399 0.534702 22.6045C0.658784 25.1662 1.24317 27.4397 3.1164 29.313C4.99363 31.1903 7.26312 31.7707 9.82481 31.8947C12.0343 32.0188 14.2237 31.9988 16.4291 31.9988C18.6386 31.9988 20.828 32.0188 23.0335 31.8947C25.5952 31.7707 27.8687 31.1863 29.7419 29.313C31.6191 27.4357 32.1995 25.1662 32.3236 22.6045C32.4517 20.399 32.4277 18.2095 32.4277 16ZM16.4251 24.2095C11.8822 24.2095 8.21575 20.5431 8.21575 16C8.21575 11.4569 11.8822 7.79045 16.4251 7.79045C20.9681 7.79045 24.6345 11.4569 24.6345 16C24.6345 20.5431 20.9681 24.2095 16.4251 24.2095ZM24.9708 9.37152C23.9101 9.37152 23.0535 8.51494 23.0535 7.45423C23.0535 6.39351 23.9101 5.53693 24.9708 5.53693C26.0315 5.53693 26.888 6.39351 26.888 7.45423C26.8883 7.7061 26.839 7.95556 26.7427 8.18832C26.6465 8.42108 26.5053 8.63256 26.3272 8.81066C26.1491 8.98876 25.9376 9.12998 25.7048 9.22622C25.4721 9.32246 25.2226 9.37184 24.9708 9.37152Z" fill="black"/>
</svg>
