<svg width="25" height="24" viewBox="0 0 25 24" fill="none" xmlns="http://www.w3.org/2000/svg">
<path d="M12.656 23.901C9.41728 23.901 8.99506 23.887 7.7264 23.829C6.73494 23.8078 5.75409 23.6202 4.82488 23.274C4.02604 22.9749 3.30264 22.5041 2.70578 21.895C2.09851 21.2972 1.62813 20.575 1.32706 19.778C0.980237 18.8494 0.79251 17.869 0.771767 16.878C0.712736 15.593 0.69873 15.167 0.69873 11.951C0.69873 8.73499 0.712736 8.31198 0.770767 7.02298C0.792118 6.03206 0.979825 5.05176 1.32606 4.12299C1.62788 3.32615 2.09855 2.60398 2.70578 2.00598C3.30391 1.39884 4.0265 0.928393 4.82388 0.626984C5.75316 0.280988 6.73397 0.0933878 7.7254 0.071991C9.01407 0.013991 9.44129 0 12.655 0C15.8686 0 16.2959 0.013991 17.5855 0.071991C18.577 0.0933878 19.5578 0.280988 20.4871 0.626984C21.2857 0.925942 22.0088 1.39672 22.6052 2.00598C23.2124 2.60377 23.6828 3.32603 23.9839 4.12299C24.3309 5.05157 24.519 6.03195 24.5402 7.02298C24.5982 8.29598 24.6112 8.72299 24.6112 11.951C24.6112 15.179 24.5972 15.61 24.5392 16.878C24.5182 17.869 24.3305 18.8493 23.9839 19.778C23.6765 20.5723 23.2068 21.2938 22.6047 21.8965C22.0026 22.4991 21.2813 22.9696 20.4871 23.278C19.5578 23.624 18.577 23.8116 17.5855 23.833C16.3109 23.887 15.8927 23.901 12.656 23.901ZM12.656 5.81299C11.0281 5.81484 9.46735 6.46201 8.31624 7.61252C7.16513 8.76303 6.51762 10.3229 6.51577 11.95C6.51762 13.577 7.16513 15.1369 8.31624 16.2874C9.46735 17.438 11.0281 18.0851 12.656 18.087C14.2839 18.0851 15.8446 17.438 16.9957 16.2874C18.1468 15.1369 18.7943 13.577 18.7962 11.95C18.7946 10.3226 18.1471 8.76227 16.9957 7.61151C15.8443 6.46076 14.2832 5.81357 12.655 5.81198L12.656 5.81299ZM19.0393 4.13599C18.6588 4.13625 18.2939 4.28737 18.0247 4.55621C17.7555 4.82505 17.6041 5.18965 17.6035 5.56998C17.6038 5.95048 17.7552 6.31532 18.0244 6.58438C18.2936 6.85344 18.6586 7.00471 19.0393 7.00497C19.4198 7.00444 19.7846 6.85307 20.0536 6.58405C20.3226 6.31502 20.4738 5.95031 20.474 5.56998C20.4738 5.18956 20.3224 4.82484 20.0532 4.55594C19.7839 4.28704 19.4189 4.13599 19.0383 4.13599H19.0393Z" fill="#373841"/>
<path d="M12.704 16.498C15.1905 16.498 17.2063 14.4833 17.2063 11.998C17.2063 9.51277 15.1905 7.49805 12.704 7.49805C10.2174 7.49805 8.20166 9.51277 8.20166 11.998C8.20166 14.4833 10.2174 16.498 12.704 16.498Z" fill="#373841"/>
</svg>
