<svg width="115" height="51" viewBox="0 0 115 51" fill="none" xmlns="http://www.w3.org/2000/svg">
<path fill-rule="evenodd" clip-rule="evenodd" d="M43.2049 11.9989L42.4049 13.6129C42.2729 13.8219 42.0919 14.1509 41.8499 14.6069C41.663 14.9772 41.4406 15.3285 41.1859 15.6559C40.9126 16.103 40.5634 16.4989 40.1539 16.8259C39.9908 16.9012 39.8522 17.021 39.754 17.1715C39.6558 17.3221 39.6021 17.4972 39.5989 17.6769L38.6219 18.3909L37.5019 19.2479C37.0519 19.4789 36.8379 19.7529 36.8649 20.0719L36.2719 20.1649C35.9905 20.323 35.7365 20.5256 35.5199 20.7649C35.2449 21.2369 34.9429 21.4839 34.6199 21.5059C34.5468 21.5422 34.4866 21.5999 34.4472 21.6714C34.4079 21.7429 34.3914 21.8247 34.3999 21.9059C34.3449 22.0759 34.1799 22.2059 33.8949 22.3059C33.6479 22.2899 33.1099 22.6139 32.2699 23.2829C32.146 23.4343 31.9795 23.5451 31.7919 23.6009C31.5666 23.7162 31.2589 23.8975 30.8689 24.1449C30.5132 24.3626 30.2004 24.6435 29.9459 24.9739C29.751 25.1716 29.5107 25.3185 29.2459 25.4019C29.1776 25.4902 29.0782 25.549 28.9679 25.5663C28.8576 25.5836 28.7449 25.558 28.6529 25.4949C28.5376 25.4562 28.4709 25.4672 28.4529 25.5279C28.3251 25.6896 28.1407 25.7968 27.9369 25.8279C27.7368 25.8658 27.5428 25.9304 27.3599 26.0199C27.191 26.0969 27.0395 26.2075 26.9149 26.3451C26.7902 26.4827 26.6949 26.6442 26.6349 26.8199C26.6115 26.9136 26.5522 26.9944 26.4699 27.0449C26.2708 27.3472 26.0262 27.617 25.7449 27.8449L25.7119 27.3669C25.6219 27.3304 25.5255 27.3121 25.4284 27.313C25.3313 27.3138 25.2353 27.3338 25.1459 27.3719C24.9595 27.4124 24.7799 27.4797 24.6129 27.5719C24.4232 27.679 24.2106 27.7393 23.9929 27.7479L23.7129 28.0339C23.6749 28.1489 23.6359 28.2759 23.5919 28.4179C23.5479 28.5599 23.4329 28.6319 23.2409 28.6319C23.1859 28.6159 23.1199 28.7199 23.0489 28.9449C23.0535 29.0477 23.0227 29.149 22.9618 29.2319C22.9009 29.3149 22.8134 29.3745 22.7139 29.4009C22.5409 29.4239 22.3662 29.4312 22.1919 29.4229C22.025 29.4241 21.8587 29.4019 21.6979 29.3569L20.8799 29.2799C20.7492 29.3194 20.6338 29.3982 20.5494 29.5055C20.465 29.6129 20.4156 29.7435 20.4079 29.8799C20.445 29.8609 20.4856 29.8496 20.5272 29.8469C20.5689 29.8441 20.6106 29.8499 20.6499 29.8639C20.6892 29.8777 20.7309 29.8834 20.7725 29.8807C20.8141 29.8779 20.8547 29.8668 20.8919 29.8479C20.8752 29.9025 20.8806 29.9359 20.9079 29.9479C20.9218 29.9541 20.9367 29.9578 20.9519 29.9589L20.3919 30.2499L20.2269 30.7609L17.7049 31.3409L17.2269 31.6539C17.1001 31.7879 16.9478 31.8953 16.7791 31.9698C16.6103 32.0443 16.4284 32.0844 16.2439 32.0879C15.8869 32.0329 15.6339 32.2359 15.4919 32.6879C15.3659 33.0832 15.1519 33.2645 14.8499 33.2319C14.7762 33.5412 14.7376 33.8579 14.7349 34.1759C14.7481 34.3594 14.7099 34.543 14.6246 34.706C14.5393 34.8691 14.4102 35.0051 14.2519 35.0989L13.5039 36.5409C13.2386 37.0097 13.0442 37.5152 12.9269 38.0409C12.8028 38.3203 12.6539 38.5881 12.4819 38.8409C12.5769 39.1591 12.5516 39.5011 12.4109 39.8019C12.2629 40.1589 12.1639 40.4219 12.1109 40.5929L11.5889 41.9219L11.2409 43.3029C11.2311 43.544 11.1867 43.7824 11.1089 44.0109C11.0367 44.2713 10.9258 44.5194 10.7799 44.7469L10.4229 45.5709C10.5794 46.2175 10.5856 46.8915 10.4409 47.5409L10.4789 48.3039L10.6929 49.6819L10.4399 49.8819L9.8199 49.7819C9.7649 49.7659 9.7379 49.7379 9.7489 49.7109C9.75508 49.697 9.7588 49.6821 9.7599 49.6669C9.21252 49.4742 8.72328 49.1452 8.33835 48.7109C7.95343 48.2766 7.68551 47.7514 7.5599 47.1849C7.21584 46.0055 7.0401 44.7834 7.0379 43.5549L7.2379 41.1829L7.9239 37.2829C8.05486 36.6411 8.22722 36.0084 8.4399 35.3889C8.48513 35.1758 8.45804 34.9538 8.3629 34.7579C8.28594 34.6829 8.19489 34.6238 8.095 34.5842C7.99511 34.5445 7.88836 34.5251 7.7809 34.5269C7.25558 34.6043 6.72089 34.5915 6.1999 34.4889C5.98328 34.426 5.76079 34.3854 5.5359 34.3679C5.4195 34.3649 5.30503 34.3374 5.19994 34.2873C5.09485 34.2371 5.00148 34.1655 4.9259 34.0769L4.5859 33.9669L4.3329 33.8849C3.79261 33.6763 3.28691 33.3874 2.8329 33.0279L2.5409 32.7409L2.2879 32.6589C2.10861 32.6125 1.94738 32.5133 1.82507 32.3743C1.70277 32.2352 1.62502 32.0626 1.6019 31.8789L1.5859 31.7029C1.38345 31.5335 1.22484 31.3178 1.12352 31.0741C1.0222 30.8304 0.981169 30.5658 1.0039 30.3029C1.09257 30.1233 1.22714 29.9703 1.39398 29.8595C1.56081 29.7487 1.75398 29.684 1.9539 29.6719C2.05256 29.6945 2.1557 29.6876 2.25048 29.652C2.34525 29.6165 2.42747 29.5538 2.4869 29.4719C2.79012 29.1709 3.13828 28.9189 3.5189 28.7249C3.82357 28.5801 4.11415 28.4074 4.3869 28.2089L7.0229 26.7089C7.82425 26.3263 8.64966 25.9962 9.4939 25.7209C9.49596 25.709 9.50067 25.6978 9.50769 25.688C9.5147 25.6782 9.52384 25.6701 9.53441 25.6643C9.54499 25.6586 9.55673 25.6552 9.56876 25.6547C9.58079 25.6541 9.59281 25.6562 9.6039 25.6609C9.6589 25.6769 9.6859 25.6879 9.6859 25.6879L9.8559 25.7429C10.0018 25.7787 10.1557 25.7614 10.2899 25.6939C10.4659 25.6279 10.5899 25.5729 10.6689 25.5349L11.2949 25.9249C11.3103 26.0876 11.2761 26.2512 11.1966 26.394C11.1172 26.5368 10.9963 26.6522 10.8499 26.7249C10.4532 26.9658 10.142 27.325 9.9599 27.7519L9.8499 28.0919C9.73926 28.4628 9.50493 28.7847 9.1859 29.0039L9.3289 29.1409C10.3939 28.7349 10.9649 28.5099 11.0419 28.4709C11.2069 28.3416 11.3403 28.1764 11.4319 27.9879C11.5184 27.81 11.6187 27.6391 11.7319 27.4769L12.0069 26.9109C12.1839 26.7376 12.2907 26.5051 12.3069 26.2579C12.4066 25.8759 12.5844 25.5188 12.8289 25.2089C13.0712 24.8949 13.2622 24.5446 13.3949 24.1709C13.5338 23.8063 13.6951 23.4506 13.8779 23.1059C13.9329 22.9359 14.0259 22.6829 14.1639 22.3539C14.2867 22.0412 14.5187 21.7836 14.8169 21.6289C14.8495 21.6173 14.879 21.5985 14.9031 21.5737C14.9272 21.5489 14.9452 21.5189 14.9559 21.486C14.9665 21.4532 14.9694 21.4183 14.9644 21.3841C14.9594 21.3499 14.9465 21.3173 14.9269 21.2889L15.0369 20.9489C15.1279 20.6325 15.2569 20.3283 15.4209 20.0429C16.0849 18.7579 16.6069 17.8029 16.9969 17.1769C17.2162 16.6882 17.6026 15.9689 18.1559 15.0189C18.4512 14.3872 18.7886 13.7762 19.1659 13.1899C19.6159 12.4599 19.9899 11.8339 20.2859 11.3009L21.7959 8.97788L23.4319 6.50688C23.7849 6.08688 24.04 5.59364 24.1789 5.06288C24.0636 5.02421 23.9969 5.03521 23.9789 5.09588C23.7895 5.18882 23.5929 5.26608 23.3909 5.32688C23.1889 5.38767 22.9923 5.46493 22.8029 5.55788L21.3479 6.30988L19.1629 7.29288L18.6029 7.58388C18.3642 7.75948 18.1106 7.91374 17.8449 8.04488C17.5462 8.20327 17.236 8.33898 16.9169 8.45088C16.3968 8.75875 15.9264 9.1438 15.5219 9.59288C15.3099 9.73382 15.1255 9.91244 14.9779 10.1199C14.885 10.2668 14.7785 10.4048 14.6599 10.5319C14.4107 10.7476 14.0893 10.8611 13.7599 10.8499C13.4083 10.8897 13.0548 10.7935 12.7719 10.5809C12.5816 10.4773 12.4015 10.3561 12.2339 10.2189C12.0671 10.0878 11.8741 9.99397 11.6679 9.94388C11.5884 9.57004 11.4514 9.21078 11.2619 8.87888C11.1993 8.69898 11.1888 8.50508 11.2317 8.31949C11.2745 8.1339 11.3688 7.96418 11.5039 7.82988C12.094 7.13298 12.791 6.53419 13.5689 6.05588C13.7391 5.96018 13.8899 5.8337 14.0139 5.68288C14.1379 5.53207 14.2888 5.40559 14.4589 5.30988C14.9259 5.02388 15.5679 4.57388 16.3919 3.96488C17.0104 3.45052 17.7099 3.04232 18.4619 2.75688C19.7145 2.19117 20.9979 1.69607 22.3059 1.27388C23.5286 0.790766 24.801 0.444328 26.0999 0.240876C26.4179 0.218876 26.9349 0.163877 27.6479 0.081877C28.2754 -0.0002812 28.9097 -0.0183743 29.5409 0.0278771C29.7879 0.0438771 30.2409 0.0658772 30.9249 0.0988772C31.5586 0.121027 32.1866 0.227978 32.7919 0.416877L32.8739 0.443877C33.02 0.48594 33.1722 0.502517 33.3239 0.492877C33.4754 0.488409 33.6269 0.504898 33.7739 0.541877C34.0562 0.56936 34.3323 0.641597 34.5919 0.755877C34.7962 0.848895 35.0051 0.931337 35.2179 1.00288L36.4039 1.38188C36.7657 1.53028 37.1163 1.70473 37.4529 1.90388L37.7659 2.09588C37.8551 2.05801 37.9554 2.05622 38.0459 2.09088C38.1769 2.13762 38.298 2.20851 38.4029 2.29988C38.507 2.39236 38.6283 2.46338 38.7599 2.50888C38.8536 2.53241 38.9343 2.59162 38.9849 2.67388C39.0089 2.71545 39.0414 2.75159 39.0801 2.77999C39.1188 2.80839 39.163 2.82844 39.2099 2.83888C39.6278 3.03502 39.9833 3.34307 40.2369 3.72888L40.9179 4.22888C41.5863 4.89538 42.1643 5.64681 42.6369 6.46388C42.6749 6.54088 42.7579 6.67288 42.8789 6.86988C42.9328 6.93269 42.9725 7.0064 42.9953 7.08596C43.018 7.16552 43.0234 7.24906 43.0109 7.33088C42.987 7.68801 43.0491 8.04566 43.1919 8.37388C43.3179 8.64997 43.3976 8.94491 43.4279 9.24688C43.4164 9.595 43.4291 9.94351 43.4659 10.2899C43.5197 10.6862 43.4546 11.0896 43.2789 11.4489L43.2079 11.9979L43.2049 11.9989ZM39.3499 12.6359C39.432 12.4714 39.5294 12.315 39.6409 12.1689C39.7256 12.0545 39.7805 11.9209 39.8006 11.7799C39.8207 11.639 39.8053 11.4953 39.7559 11.3619L40.0309 10.7959C40.2262 9.94268 40.254 9.05969 40.1129 8.19588C40.0456 7.77315 39.8652 7.37648 39.5909 7.04788C39.3507 6.75076 39.1562 6.41944 39.0139 6.06488C38.6817 5.86198 38.3834 5.60823 38.1299 5.31288C37.8878 5.01707 37.5738 4.78843 37.2179 4.64888L35.5779 3.94088C35.464 3.90308 35.3551 3.85135 35.2539 3.78688C35.1496 3.72084 35.024 3.69722 34.9029 3.72088C34.1907 3.656 33.4747 3.64496 32.7609 3.68788C31.8927 3.67812 31.0253 3.74505 30.1689 3.88788C29.9892 3.87995 29.8093 3.90019 29.6359 3.94788C29.4987 3.9683 29.3702 4.02783 29.266 4.11934C29.1617 4.21085 29.086 4.33047 29.0479 4.46388L29.5039 5.07888C29.4941 5.31999 29.4497 5.55844 29.3719 5.78688C29.1141 6.40569 28.6536 6.91843 28.0659 7.24088C27.8498 7.87339 27.5327 8.46674 27.1269 8.99788C26.708 9.56119 26.356 10.1713 26.0779 10.8159C26.0969 10.8428 26.1062 10.8754 26.1042 10.9083C26.1022 10.9412 26.089 10.9725 26.0669 10.9969C26.0247 11.0419 25.9909 11.094 25.9669 11.1509C25.8174 11.3787 25.6923 11.6217 25.5939 11.8759C25.4979 12.1568 25.3051 12.3943 25.0499 12.5459L25.0829 12.7459C24.942 12.976 24.8314 13.2234 24.7539 13.4819C24.7027 13.6877 24.609 13.8805 24.4789 14.0479C24.1739 14.3538 23.954 14.734 23.8409 15.1509C23.7687 15.4113 23.6578 15.6594 23.5119 15.8869C23.3401 16.171 23.1842 16.4645 23.0449 16.7659C22.8863 17.111 22.6606 17.421 22.3809 17.6779C22.5509 17.9199 22.4909 18.3039 22.1939 18.8369L21.6389 19.6879C21.6129 19.7599 21.5757 19.8273 21.5289 19.8879C21.4716 19.9815 21.4519 20.0933 21.4739 20.2009C21.5131 20.3657 21.4892 20.5393 21.4068 20.6873C21.3244 20.8354 21.1896 20.9472 21.0289 21.0009C20.904 21.0963 20.8057 21.2222 20.7432 21.3664C20.6807 21.5107 20.6561 21.6685 20.6719 21.8249C20.6169 21.9949 20.5289 22.2149 20.4139 22.4889C20.3089 22.7052 20.249 22.9407 20.2379 23.1809C20.2759 23.2579 20.2759 23.3019 20.2379 23.3239C20.2189 23.3314 20.2005 23.3404 20.1829 23.3509L19.6609 24.3999C19.581 24.6899 19.4609 24.9673 19.3039 25.2239C19.1559 25.4905 18.8156 26.0672 18.2829 26.9539C18.5242 26.9788 18.768 26.9552 19 26.8844C19.2321 26.8137 19.4476 26.6972 19.6339 26.5419C20.4149 26.0345 21.2659 25.644 22.1599 25.3829C22.2694 25.3876 22.3774 25.3567 22.4679 25.2949C22.6159 25.2179 22.9789 25.0199 23.5439 24.7019C24.0766 24.3978 24.6649 24.2037 25.2739 24.1309C25.2959 24.1421 25.3202 24.1479 25.3448 24.1479C25.3695 24.1479 25.3938 24.142 25.4158 24.1308C25.4377 24.1196 25.4567 24.1033 25.4711 24.0833C25.4856 24.0634 25.4951 24.0402 25.4989 24.0159L26.7619 23.2969L27.6619 22.8359C27.9689 22.6887 28.2521 22.4962 28.5019 22.2649C28.5106 22.2376 28.5272 22.2135 28.5496 22.1956C28.5721 22.1778 28.5993 22.1671 28.6279 22.1649L28.7279 22.1489C28.8759 22.0719 29.0959 21.9729 29.3869 21.8489C29.643 21.7523 29.8621 21.5773 30.0129 21.3489C30.2424 21.1251 30.5078 20.9412 30.7979 20.8049C31.0861 20.6652 31.3509 20.4817 31.5829 20.2609L32.3349 19.6609L33.4549 18.8039L34.7669 17.6339C34.8599 17.5409 34.9539 17.4419 35.0469 17.3479C35.1537 17.2439 35.2758 17.1569 35.4089 17.0899C35.631 16.8671 35.8697 16.6616 36.1229 16.4749C36.444 16.2259 36.7386 15.9444 37.0019 15.6349C37.8441 14.6849 38.6288 13.6854 39.3519 12.6419L39.3499 12.6359ZM35.3409 16.9679L35.3959 17.0779C35.4126 17.0232 35.4072 16.9899 35.3799 16.9779L35.3409 16.9679ZM23.6019 28.7469L23.6619 28.8569C23.6664 28.8424 23.6701 28.8277 23.6729 28.8129C23.6836 28.7855 23.7169 28.7802 23.7729 28.7969L23.7129 28.6869C23.6985 28.6824 23.6838 28.6787 23.6689 28.6759C23.6419 28.6709 23.6199 28.6919 23.6029 28.7469H23.6019ZM21.1859 29.5649L21.1589 29.6469L21.2409 29.6739C21.2454 29.6594 21.2491 29.6447 21.2519 29.6299C21.2626 29.6085 21.2406 29.5869 21.1859 29.5649Z" fill="black"/>
<path fill-rule="evenodd" clip-rule="evenodd" d="M51.727 21.6018C49.564 25.4898 45.138 31.0468 43.127 31.1888C43.8378 28.6644 44.7428 26.1987 45.834 23.8138C45.734 21.4528 46.279 19.9258 44.456 18.9928C39.931 16.7798 35.756 22.0408 34.671 26.7628C33.985 29.3218 34.971 31.2378 37.521 31.4848C38.257 30.6008 39.536 30.0568 39.833 29.0248C39.882 29.1248 39.833 29.2248 39.981 29.2718C39.932 28.0908 41.112 27.1088 41.848 26.2238C41.648 27.3548 40.223 30.8968 40.766 31.4348C41.798 31.5828 42.144 32.5168 43.177 32.3678C45.143 32.0218 49.129 27.6948 51.831 23.0678L51.731 21.5958L51.727 21.6018ZM37.121 27.9438C38.054 27.3068 38.153 24.2538 39.971 24.3528C39.922 24.0528 39.625 24.4018 39.427 24.2528C40.4897 22.6174 41.921 21.2539 43.606 20.2718C43.7794 20.3606 43.9151 20.5086 43.9885 20.6891C44.0619 20.8695 44.0681 21.0702 44.006 21.2548C43.6873 21.3483 43.3756 21.4639 43.073 21.6008C41.892 24.0608 40.124 27.1578 38.202 28.8328C37.7671 29.2595 37.1861 29.5047 36.577 29.5188C36.6589 28.9396 36.7744 28.3656 36.923 27.7998C37.023 27.6998 37.176 27.8928 37.123 27.9428L37.121 27.9438ZM40.756 26.8128C40.608 26.2688 41.689 25.4838 42.035 24.7978C42.035 25.5338 41.102 26.0768 40.756 26.8128ZM42.727 26.1268C42.327 26.1758 42.427 25.7808 42.48 25.4408C42.6062 25.6512 42.6901 25.8843 42.727 26.1268ZM56.054 18.9448C55.219 19.1448 54.577 19.8778 53.792 19.5818C52.611 21.6958 51.233 24.0568 49.954 26.1218C49.41 26.2218 49.754 25.9738 49.41 25.6768C50.5703 23.5933 51.6055 21.4425 52.51 19.2358C50.495 17.3198 52.51 12.5968 55.51 13.3358C57.032 14.8558 54.871 16.2318 54.571 17.9558C55.752 18.0558 56.784 17.1208 57.866 17.5108C57.866 17.6588 57.766 17.7578 57.766 17.9558C58.1218 17.9654 58.4656 18.0864 58.749 18.3018C58.966 18.6701 59.0968 19.0828 59.1314 19.5089C59.1661 19.9349 59.1037 20.3633 58.949 20.7618C58.312 22.4808 57.422 24.3038 56.588 26.2198C55.7688 27.6279 55.0461 29.0899 54.425 30.5958C54.155 31.6116 53.973 32.6488 53.881 33.6958C55.309 33.5958 55.995 31.7298 56.881 31.5328C59.143 28.9738 63.619 25.1908 65.93 22.4328C64.112 27.1058 60.03 30.6968 57.03 34.6328C56.047 34.7808 55.849 35.9618 54.768 35.8628C53.489 35.7628 52.506 34.7808 51.568 34.2378C50.239 32.3218 51.222 30.0588 52.062 28.0438C53.149 25.0508 55.762 21.7068 56.054 18.9508V18.9448ZM53.594 27.0558C52.315 28.2368 52.611 29.9558 51.579 30.5978C51.779 28.8788 53.056 26.8588 53.792 25.1398C54.138 24.7938 54.336 25.0398 54.429 24.5958C54.676 25.5788 53.248 26.3148 53.594 27.0558ZM53.149 18.1558C54.0056 16.9274 54.653 15.5657 55.065 14.1258C54.865 14.1258 54.865 13.8788 54.665 13.8788C53.885 15.1528 52.507 16.7788 53.144 18.1568L53.149 18.1558ZM53.594 28.7758C53.494 27.9408 54.577 27.3978 54.231 26.4148C53.792 27.4028 53.05 27.7928 53.594 28.7758ZM52.611 30.5988C52.759 30.2988 53.248 29.6158 52.957 29.3198C52.757 29.8578 52.413 30.1548 52.611 30.5988ZM51.579 31.3348C51.233 31.3348 51.431 30.5988 51.879 30.6978C51.874 31.0378 51.679 31.1368 51.579 31.3348ZM69.628 14.4658C69.677 14.4658 69.677 14.6138 69.728 14.6658C69.14 15.5498 67.614 16.8288 68.103 17.7658C68.597 18.7978 70.019 18.1118 70.662 17.4198C70.662 17.4198 70.415 17.3708 70.514 17.3198C70.914 16.6828 72.183 16.1888 72.282 15.1568C72.331 14.4208 71.645 13.9758 70.904 13.5318C70.36 13.5318 70.168 14.2678 69.674 14.4648C69.674 14.4208 69.674 14.4208 69.63 14.4698L69.628 14.4658ZM61.71 29.4658C62.01 29.0658 62.254 28.7798 62.446 28.5328C62.199 29.3178 61.952 30.1088 61.661 30.9438C61.8558 31.5969 61.9393 32.2781 61.908 32.9588C62.792 33.9418 64.368 35.7158 66.284 35.0728C66.7755 34.8804 67.2263 34.5971 67.613 34.2378C68.107 33.8918 68.942 33.7438 68.991 33.1068C69.238 33.2068 69.238 32.9588 69.579 32.9588C69.979 32.1738 70.76 32.0748 70.908 31.0428C71.155 30.7958 71.792 30.4058 71.452 30.1588C71.052 30.3588 70.667 31.2898 70.074 31.2408C70.76 30.7958 71.205 29.9118 71.941 29.5718C71.841 29.7198 71.641 29.7718 71.641 30.1158C72.0187 29.9588 72.319 29.6586 72.476 29.2808C72.176 29.0808 72.276 29.6808 71.932 29.4288C72.476 28.9348 72.717 28.0998 73.409 27.8038C73.609 26.9688 74.639 26.7718 74.936 25.8378C75.919 25.4378 75.771 24.0698 76.754 23.8228C76.803 23.5228 77.054 23.5228 77.054 23.1858C77.154 23.1858 77.202 23.0858 77.301 23.1858C77.449 22.4008 78.234 22.2028 78.234 21.6098C77.9361 21.8407 77.6245 22.0534 77.301 22.2468C77.252 22.3948 77.301 22.5928 77.201 22.6468C77.101 22.8468 76.855 22.7948 76.657 22.9928C76.311 23.3388 76.069 23.9758 75.674 24.3708C75.427 24.7168 74.839 24.8158 74.839 25.4528C71.594 28.5008 69.183 32.8768 64.609 33.7658C64.418 32.3602 64.7312 30.9324 65.493 29.7358C65.839 29.0988 65.987 28.3078 66.328 27.7208C67.261 25.9028 68.541 24.4258 69.428 22.5588C69.628 22.1138 69.628 21.5758 70.016 21.1808C69.982 20.5834 69.726 20.0203 69.2983 19.6018C68.8706 19.1834 68.302 18.9398 67.704 18.9188C67.604 19.1658 67.358 19.2188 67.116 19.4628C67.316 19.8628 66.916 19.7098 66.968 20.1988C65.991 21.5548 64.368 22.9768 61.713 29.4728L61.71 29.4658ZM68.739 32.7108C68.887 32.3648 69.283 32.6618 69.327 32.2658C69.427 32.3148 69.574 32.3148 69.673 32.3658C69.573 32.7118 69.179 32.6658 69.129 33.0028C68.937 32.9588 68.887 32.8108 68.739 32.7118V32.7108ZM67.855 33.1998C67.855 32.9998 68.055 33.0998 68.155 32.9998C68.155 33.0488 68.155 33.3998 67.855 33.1998ZM67.119 33.5998C67.267 33.4518 67.465 33.4998 67.613 33.3998C67.706 33.4998 67.413 33.7458 67.119 33.5998ZM85.219 22.8808C83.0566 24.2433 80.8242 25.4913 78.531 26.6198C78.2573 26.4538 78.0201 26.234 77.8339 25.9737C77.6476 25.7134 77.516 25.418 77.4472 25.1054C77.3784 24.7927 77.3738 24.4694 77.4335 24.1549C77.4933 23.8405 77.6163 23.5414 77.795 23.2758C79.223 20.8158 84.187 18.8998 84.829 16.3408C84.2043 15.9581 83.4912 15.7434 82.759 15.7175C82.0268 15.6915 81.3003 15.8553 80.65 16.1928C79.766 16.5388 74.258 21.3048 74.796 23.4688C74.896 25.3848 76.174 25.7808 77.646 27.4008C75.235 30.4008 65.697 35.8078 68.446 40.9748C69.725 43.4348 77.298 40.6748 79.313 38.0748C82.805 33.3028 83.64 29.9588 79.56 27.4548C80.938 26.7688 83.448 24.9948 85.803 23.5228L85.215 22.8808H85.219ZM77.541 33.5998C76.212 35.0278 71.347 40.3868 69.672 38.0748C69.227 37.7288 71.835 35.0268 71.44 34.8748C73.159 33.3478 76.261 29.6638 78.227 28.2358C79.803 29.6628 78.381 32.4688 77.541 33.5998Z" fill="black"/>
<path fill-rule="evenodd" clip-rule="evenodd" d="M93.4539 33.1H91.9819L86.7219 24.951C86.5907 24.7487 86.4804 24.5336 86.3929 24.309H86.3489C86.3983 24.7759 86.4167 25.2456 86.4039 25.715V33.101H85.2039V22.881H86.7579L91.8759 30.903C92.0899 31.232 92.2269 31.463 92.2879 31.584H92.3149C92.2556 31.0863 92.2318 30.585 92.2439 30.084V22.884H93.4439V33.1H93.4539ZM104.046 33.1H102.717L101.635 30.234H97.2959L96.2749 33.1H94.9459L98.8669 22.876H100.108L104.045 33.1H104.046ZM101.246 29.157L99.6459 24.803C99.5759 24.5789 99.5244 24.3495 99.4919 24.117H99.4649C99.4318 24.3504 99.3765 24.5801 99.2999 24.803L97.7039 29.156L101.246 29.157ZM107.746 22.881V23.908H106.746V32.079H107.746V33.106H104.556V32.079H105.556V23.908H104.556V22.881H107.746ZM114.746 33.1H109.446V22.881H110.646V32.018H114.753L114.746 33.1Z" fill="black"/>
<path fill-rule="evenodd" clip-rule="evenodd" d="M35.0288 50.3359C35.3918 50.536 35.8003 50.6393 36.2148 50.6359C37.3148 50.6359 37.8458 50.0099 37.8458 49.2849C37.8458 48.5929 37.4458 48.2139 36.6598 47.9069C36.0178 47.6539 35.7318 47.4399 35.7318 47.0009C35.7318 46.6829 35.9738 46.3009 36.6108 46.3009C36.92 46.2983 37.2245 46.3758 37.4948 46.5259L37.6598 46.0319C37.3429 45.8681 36.9893 45.7885 36.6328 45.8009C36.4494 45.7791 36.2635 45.7954 36.0866 45.8487C35.9098 45.9021 35.7459 45.9913 35.6051 46.1109C35.4643 46.2304 35.3497 46.3778 35.2684 46.5436C35.1872 46.7095 35.141 46.8903 35.1328 47.0749C35.1328 47.7389 35.5998 48.1349 36.3628 48.4039C36.9888 48.6459 37.2418 48.8979 37.2418 49.3369C37.2418 49.8089 36.8848 50.1369 36.2698 50.1369C35.8899 50.1343 35.5179 50.0281 35.1938 49.8299L35.0348 50.3349L35.0288 50.3359ZM40.1358 45.8719V50.5669H40.7358V48.3669H42.9868V50.5669H43.5968V45.8729H42.9868V47.8359H40.7338V45.8729L40.1358 45.8719ZM47.9828 45.7949C47.6746 45.8018 47.3711 45.8727 47.0917 46.003C46.8123 46.1334 46.5631 46.3204 46.3597 46.5521C46.1564 46.7839 46.0034 47.0553 45.9104 47.3493C45.8175 47.6433 45.7866 47.9533 45.8198 48.2599C45.7865 48.5565 45.8155 48.8568 45.9049 49.1416C45.9943 49.4264 46.1423 49.6894 46.3392 49.9137C46.5361 50.138 46.7777 50.3187 47.0485 50.4443C47.3193 50.5699 47.6134 50.6375 47.9118 50.6429C48.2222 50.6411 48.5288 50.5735 48.8111 50.4445C49.0934 50.3154 49.3452 50.1279 49.5496 49.8943C49.7541 49.6607 49.9066 49.3864 49.9972 49.0895C50.0877 48.7926 50.1142 48.4798 50.0748 48.1719C50.1096 47.8752 50.0816 47.5746 49.9927 47.2895C49.9037 47.0043 49.7558 46.7411 49.5585 46.5168C49.3613 46.2926 49.119 46.1123 48.8476 45.9878C48.5761 45.8632 48.2815 45.7972 47.9828 45.7939V45.7949ZM47.9558 46.2889C48.9558 46.2889 49.4388 47.2659 49.4388 48.1999C49.4388 49.2649 48.9008 50.1489 47.9448 50.1489C46.9888 50.1489 46.4618 49.2489 46.4618 48.2489C46.4668 47.2109 46.9618 46.2889 47.9558 46.2889ZM52.3208 50.5669H52.9208V48.6839C53.0796 48.7169 53.2417 48.7316 53.4038 48.7279C53.6634 48.7425 53.9233 48.7043 54.1677 48.6157C54.4121 48.527 54.636 48.3896 54.8258 48.2119C54.9485 48.0771 55.0432 47.9193 55.1045 47.7476C55.1658 47.576 55.1924 47.3939 55.1828 47.2119C55.1894 47.0285 55.1565 46.8459 55.0865 46.6763C55.0164 46.5067 54.9108 46.3542 54.7768 46.2289C54.4044 45.9416 53.9387 45.8026 53.4698 45.8389C53.0835 45.8371 52.6978 45.8682 52.3168 45.9319V50.5719L52.3208 50.5669ZM52.9208 46.3669C53.107 46.3291 53.2969 46.3126 53.4868 46.3179C54.1508 46.3179 54.5868 46.6179 54.5868 47.2349C54.5868 47.8829 54.1478 48.2349 53.4228 48.2349C53.2548 48.2383 53.087 48.2219 52.9228 48.1859V46.3669H52.9208ZM61.0858 50.5669C60.8108 50.2669 60.5698 50.0009 60.3168 49.7379C60.6883 49.2282 60.9193 48.6299 60.9868 48.0029H60.4318C60.3807 48.4872 60.2273 48.9552 59.9818 49.3759C59.6818 49.0409 59.2408 48.5249 58.8508 48.0639V48.0419C59.5918 47.6739 59.8718 47.2839 59.8718 46.7899C59.8751 46.6556 59.8505 46.5222 59.7996 46.3979C59.7487 46.2736 59.6726 46.1612 59.5761 46.0679C59.4796 45.9745 59.3648 45.9021 59.2389 45.8553C59.1131 45.8085 58.9789 45.7882 58.8448 45.7959C58.6899 45.7895 58.5353 45.815 58.3906 45.8708C58.246 45.9265 58.1142 46.0112 58.0036 46.1198C57.8929 46.2284 57.8057 46.3586 57.7472 46.5022C57.6888 46.6458 57.6604 46.7999 57.6638 46.9549C57.6786 47.3162 57.8137 47.6622 58.0478 47.9379V47.9599C57.7812 48.0786 57.5538 48.2708 57.3923 48.5139C57.2309 48.757 57.1419 49.0411 57.1358 49.3329C57.1361 49.5153 57.174 49.6958 57.2474 49.8629C57.3207 50.03 57.4277 50.1801 57.5618 50.3039C57.6959 50.4277 57.8541 50.5224 58.0266 50.5821C58.199 50.6418 58.3819 50.6652 58.5638 50.6509C58.8152 50.6561 59.0651 50.6113 59.2989 50.5189C59.5328 50.4265 59.7459 50.2885 59.9258 50.1129C60.1068 50.3129 60.2258 50.4419 60.3598 50.5739H61.0848L61.0858 50.5669ZM58.6748 50.1829C58.5487 50.187 58.4231 50.1653 58.3057 50.1191C58.1883 50.0729 58.0816 50.0031 57.9921 49.9142C57.9027 49.8252 57.8323 49.7188 57.7855 49.6017C57.7387 49.4845 57.7163 49.359 57.7198 49.2329C57.73 49.0357 57.7905 48.8445 57.8956 48.6773C58.0006 48.5101 58.1466 48.3726 58.3198 48.2779C58.8358 48.8779 59.3578 49.4479 59.6318 49.7549C59.5124 49.8902 59.3654 49.9984 59.2006 50.0723C59.0359 50.1461 58.8573 50.1838 58.6768 50.1829H58.6748ZM58.8068 46.2129C58.8824 46.2142 58.957 46.2311 59.0257 46.2626C59.0945 46.294 59.1561 46.3393 59.2066 46.3956C59.2571 46.4519 59.2954 46.518 59.3192 46.5898C59.343 46.6616 59.3517 46.7376 59.3448 46.8129C59.3448 47.2129 59.0448 47.4609 58.5708 47.7299C58.3584 47.4976 58.2342 47.1982 58.2198 46.8839C58.2105 46.8002 58.2187 46.7156 58.2438 46.6353C58.2689 46.555 58.3104 46.4807 58.3656 46.4173C58.4209 46.3538 58.4887 46.3026 58.5649 46.2667C58.641 46.2308 58.7237 46.2111 58.8078 46.2089L58.8068 46.2129ZM62.8628 50.3359C63.2258 50.536 63.6343 50.6393 64.0488 50.6359C65.1488 50.6359 65.6798 50.0099 65.6798 49.2849C65.6798 48.5929 65.2798 48.2139 64.4938 47.9069C63.8518 47.6539 63.5658 47.4399 63.5658 47.0009C63.5658 46.6829 63.8078 46.3009 64.4448 46.3009C64.754 46.2983 65.0585 46.3758 65.3288 46.5259L65.4938 46.0319C65.1769 45.8681 64.8233 45.7885 64.4668 45.8009C64.2834 45.7791 64.0975 45.7954 63.9206 45.8487C63.7438 45.9021 63.5799 45.9913 63.4391 46.1109C63.2983 46.2304 63.1837 46.3778 63.1024 46.5436C63.0212 46.7095 62.975 46.8903 62.9668 47.0749C62.9668 47.7389 63.4338 48.1349 64.1968 48.4039C64.8228 48.6459 65.0758 48.8979 65.0758 49.3369C65.0758 49.8089 64.7188 50.1369 64.1038 50.1369C63.7239 50.1343 63.3519 50.0281 63.0278 49.8299L62.8688 50.3349L62.8628 50.3359ZM71.0938 49.9299C70.7843 50.0664 70.449 50.1347 70.1108 50.1299C69.8633 50.1446 69.6155 50.105 69.385 50.0138C69.1544 49.9227 68.9465 49.7822 68.776 49.6022C68.6054 49.4222 68.4763 49.2071 68.3977 48.9719C68.319 48.7368 68.2928 48.4872 68.3208 48.2409C68.2915 47.9896 68.3174 47.7349 68.3967 47.4946C68.476 47.2543 68.6067 47.0343 68.7798 46.8497C68.9529 46.6652 69.1642 46.5207 69.3989 46.4262C69.6336 46.3318 69.8861 46.2897 70.1388 46.3029C70.463 46.2966 70.7843 46.365 71.0778 46.5029L71.2208 46.0089C70.8747 45.8569 70.4986 45.7855 70.1208 45.7999C69.7944 45.7842 69.4684 45.8375 69.164 45.9563C68.8596 46.0751 68.5836 46.2567 68.354 46.4893C68.1245 46.7218 67.9465 47.0001 67.8317 47.3061C67.717 47.612 67.6679 47.9387 67.6878 48.2649C67.6601 48.5774 67.6999 48.8923 67.8046 49.1881C67.9093 49.4839 68.0764 49.7538 68.2945 49.9793C68.5127 50.2049 68.7768 50.3809 69.069 50.4954C69.3611 50.6099 69.6745 50.6602 69.9878 50.6429C70.4093 50.6584 70.8291 50.5816 71.2178 50.4179L71.0968 49.9349L71.0938 49.9299ZM73.4388 45.8719V50.5669H74.0388V48.3669H76.2898V50.5669H76.8998V45.8729H76.2898V47.8359H74.0388V45.8729L73.4388 45.8719ZM81.2858 45.7949C80.9776 45.8018 80.6741 45.8727 80.3947 46.003C80.1153 46.1334 79.8661 46.3204 79.6627 46.5521C79.4594 46.7839 79.3064 47.0553 79.2134 47.3493C79.1205 47.6433 79.0896 47.9533 79.1228 48.2599C79.0895 48.5565 79.1185 48.8568 79.2079 49.1416C79.2973 49.4264 79.4453 49.6894 79.6422 49.9137C79.8391 50.138 80.0807 50.3187 80.3515 50.4443C80.6223 50.5699 80.9164 50.6375 81.2148 50.6429C81.5252 50.6411 81.8318 50.5735 82.1141 50.4445C82.3964 50.3154 82.6482 50.1279 82.8526 49.8943C83.0571 49.6607 83.2096 49.3864 83.3002 49.0895C83.3907 48.7926 83.4172 48.4798 83.3778 48.1719C83.4126 47.8752 83.3846 47.5746 83.2957 47.2895C83.2067 47.0043 83.0588 46.7411 82.8615 46.5168C82.6643 46.2926 82.422 46.1123 82.1506 45.9878C81.8791 45.8632 81.5845 45.7972 81.2858 45.7939V45.7949ZM81.2588 46.2889C82.2588 46.2889 82.7418 47.2659 82.7418 48.1999C82.7418 49.2649 82.2038 50.1489 81.2478 50.1489C80.2918 50.1489 79.7648 49.2489 79.7648 48.2489C79.7698 47.2109 80.2648 46.2889 81.2588 46.2889ZM87.5078 45.7949C87.1996 45.8018 86.8961 45.8727 86.6167 46.003C86.3373 46.1334 86.0881 46.3204 85.8847 46.5521C85.6814 46.7839 85.5284 47.0553 85.4354 47.3493C85.3425 47.6433 85.3116 47.9533 85.3448 48.2599C85.3115 48.5565 85.3405 48.8568 85.4299 49.1416C85.5193 49.4264 85.6673 49.6894 85.8642 49.9137C86.0611 50.138 86.3027 50.3187 86.5735 50.4443C86.8443 50.5699 87.1384 50.6375 87.4368 50.6429C87.7472 50.6411 88.0538 50.5735 88.3361 50.4445C88.6184 50.3154 88.8702 50.1279 89.0746 49.8943C89.2791 49.6607 89.4316 49.3864 89.5222 49.0895C89.6127 48.7926 89.6392 48.4798 89.5998 48.1719C89.6346 47.8752 89.6066 47.5746 89.5177 47.2895C89.4287 47.0043 89.2808 46.7411 89.0835 46.5168C88.8863 46.2926 88.644 46.1123 88.3726 45.9878C88.1011 45.8632 87.8065 45.7972 87.5078 45.7939V45.7949ZM87.4808 46.2889C88.4808 46.2889 88.9638 47.2659 88.9638 48.1999C88.9638 49.2649 88.4258 50.1489 87.4698 50.1489C86.5138 50.1489 85.9868 49.2489 85.9868 48.2489C85.9918 47.2109 86.4868 46.2889 87.4808 46.2889ZM91.8458 50.5669H94.4378V50.0559H92.4488V45.8729H91.8488V50.5679L91.8458 50.5669Z" fill="black"/>
<path d="M32.6179 48.157H22.0369V48.981H32.6179V48.157Z" fill="black"/>
<path d="M107.236 47.8389H96.6548V48.6629H107.236V47.8389Z" fill="black"/>
</svg>
