<svg width="19" height="20" viewBox="0 0 19 20" fill="none" xmlns="http://www.w3.org/2000/svg">
<path d="M0.000671715 18.838L0.633081 12.447C0.654984 12.2412 0.727033 12.0426 0.843884 11.866L2.53031 10.4135C2.83029 10.1649 3.2147 10.0195 3.6182 10.0018C4.0217 9.98417 4.4194 10.0954 4.74374 10.3166C6.07407 11.3595 7.74057 11.972 9.48681 12.0596C11.1447 12.0283 12.7422 11.4823 14.019 10.5103C14.3195 10.253 14.715 10.1099 15.1257 10.1099C15.5366 10.1099 15.9321 10.253 16.2324 10.5103L18.0243 11.9628C18.1165 12.0354 18.192 12.1242 18.2462 12.224C18.3005 12.3238 18.3326 12.4325 18.3405 12.5438L18.9729 18.9348C19.0055 19.0566 19.0087 19.1835 18.9825 19.3065C18.9561 19.4296 18.9009 19.5458 18.8206 19.6473C18.7403 19.7487 18.6369 19.8329 18.5176 19.8938C18.3982 19.9547 18.2659 19.9909 18.1297 20H0.843884C0.589086 19.9111 0.370858 19.7514 0.219684 19.543C0.06851 19.3348 -0.00805944 19.0882 0.000671715 18.838Z" fill="black"/>
<path d="M9.392 11C12.3699 11 14.784 8.53757 14.784 5.5C14.784 2.46243 12.3699 0 9.392 0C6.41408 0 4 2.46243 4 5.5C4 8.53757 6.41408 11 9.392 11Z" fill="black"/>
</svg>
