<svg width="21" height="20" viewBox="0 0 21 20" fill="none" xmlns="http://www.w3.org/2000/svg">
<path d="M8.33325 1H13.6666V3H8.33325V1Z" fill="#7A7A7A"/>
<path d="M1.33325 8.33325H6.66658V10.3333H1.33325V8.33325Z" fill="#7A7A7A"/>
<path d="M8.33325 8.33325H13.6666V10.3333H8.33325V8.33325Z" fill="#7A7A7A"/>
<path d="M15.3333 8.33325H20.6666V10.3333H15.3333V8.33325Z" fill="#7A7A7A"/>
<path d="M1.33325 15.6667H6.66658V17.6667H1.33325V15.6667Z" fill="#7A7A7A"/>
<path d="M8.33325 15.6667H13.6666V17.6667H8.33325V15.6667Z" fill="#7A7A7A"/>
<path d="M15.3333 15.6667H20.6666V17.6667H15.3333V15.6667Z" fill="#7A7A7A"/>
<path d="M8 1.00008V3.00008C8 3.18416 8.14925 3.33341 8.33333 3.33341H13.6667C13.8507 3.33341 14 3.18416 14 3.00008V1.00008C14 0.815998 13.8507 0.666748 13.6667 0.666748H8.33333C8.14925 0.666748 8 0.815998 8 1.00008ZM8.66667 1.33341H13.3333V2.66675H8.66667V1.33341Z" fill="black"/>
<path d="M20.6667 7.99992H18.3333V6.66659C18.3333 6.4825 18.1841 6.33325 18 6.33325H11.3333V5.33325H10.6667V6.33325H4C3.81592 6.33325 3.66667 6.4825 3.66667 6.66659V7.99992H1.33333C1.14925 7.99992 1 8.14917 1 8.33325V10.3333C1 10.5173 1.14925 10.6666 1.33333 10.6666H6.66667C6.85075 10.6666 7 10.5173 7 10.3333V8.33325C7 8.14917 6.85075 7.99992 6.66667 7.99992H4.33333V6.99992H10.6667V7.99992H8.33333C8.14925 7.99992 8 8.14917 8 8.33325V10.3333C8 10.5173 8.14925 10.6666 8.33333 10.6666H13.6667C13.8507 10.6666 14 10.5173 14 10.3333V8.33325C14 8.14917 13.8507 7.99992 13.6667 7.99992H11.3333V6.99992H17.6667V7.99992H15.3333C15.1493 7.99992 15 8.14917 15 8.33325V10.3333C15 10.5173 15.1493 10.6666 15.3333 10.6666H20.6667C20.8507 10.6666 21 10.5173 21 10.3333V8.33325C21 8.14917 20.8507 7.99992 20.6667 7.99992ZM6.33333 9.99992H1.66667V8.66659H6.33333V9.99992ZM13.3333 9.99992H8.66667V8.66659H13.3333V9.99992ZM20.3333 9.99992H15.6667V8.66659H20.3333V9.99992Z" fill="black"/>
<path d="M8.33325 4H8.99992V4.66667H8.33325V4Z" fill="black"/>
<path d="M9.66675 4H13.6667V4.66667H9.66675V4Z" fill="black"/>
<path d="M1.33325 11.3333H1.99992V11.9999H1.33325V11.3333Z" fill="black"/>
<path d="M2.66675 11.3333H6.66675V11.9999H2.66675V11.3333Z" fill="black"/>
<path d="M8.33325 11.3333H8.99992V11.9999H8.33325V11.3333Z" fill="black"/>
<path d="M9.66675 11.3333H13.6667V11.9999H9.66675V11.3333Z" fill="black"/>
<path d="M15.3333 11.3333H15.9999V11.9999H15.3333V11.3333Z" fill="black"/>
<path d="M16.6667 11.3333H20.6667V11.9999H16.6667V11.3333Z" fill="black"/>
<path d="M20.6667 15.3334H18.3333V14.0001C18.3333 13.816 18.1841 13.6667 18 13.6667H11.3333V12.6667H10.6667V13.6667H4C3.81592 13.6667 3.66667 13.816 3.66667 14.0001V15.3334H1.33333C1.14925 15.3334 1 15.4827 1 15.6667V17.6667C1 17.8508 1.14925 18.0001 1.33333 18.0001H6.66667C6.85075 18.0001 7 17.8508 7 17.6667V15.6667C7 15.4827 6.85075 15.3334 6.66667 15.3334H4.33333V14.3334H10.6667V15.3334H8.33333C8.14925 15.3334 8 15.4827 8 15.6667V17.6667C8 17.8508 8.14925 18.0001 8.33333 18.0001H13.6667C13.8507 18.0001 14 17.8508 14 17.6667V15.6667C14 15.4827 13.8507 15.3334 13.6667 15.3334H11.3333V14.3334H17.6667V15.3334H15.3333C15.1493 15.3334 15 15.4827 15 15.6667V17.6667C15 17.8508 15.1493 18.0001 15.3333 18.0001H20.6667C20.8507 18.0001 21 17.8508 21 17.6667V15.6667C21 15.4827 20.8507 15.3334 20.6667 15.3334ZM6.33333 17.3334H1.66667V16.0001H6.33333V17.3334ZM13.3333 17.3334H8.66667V16.0001H13.3333V17.3334ZM20.3333 17.3334H15.6667V16.0001H20.3333V17.3334Z" fill="black"/>
<path d="M1.33325 18.6667H1.99992V19.3334H1.33325V18.6667Z" fill="black"/>
<path d="M2.66675 18.6667H6.66675V19.3334H2.66675V18.6667Z" fill="black"/>
<path d="M8.33325 18.6667H8.99992V19.3334H8.33325V18.6667Z" fill="black"/>
<path d="M9.66675 18.6667H13.6667V19.3334H9.66675V18.6667Z" fill="black"/>
<path d="M15.3333 18.6667H15.9999V19.3334H15.3333V18.6667Z" fill="black"/>
<path d="M16.6667 18.6667H20.6667V19.3334H16.6667V18.6667Z" fill="black"/>
</svg>
