<svg width="33" height="19" viewBox="0 0 33 19" fill="none" xmlns="http://www.w3.org/2000/svg">
<path d="M28.2266 11.5137C29.3256 12.5108 30.3724 13.5637 31.3631 14.6682C31.7957 15.1643 32.1721 15.7067 32.4856 16.2854C32.9232 17.1241 32.5271 18.0436 31.7767 18.0939H27.113C26.5579 18.1354 26.0008 18.0478 25.4852 17.838C24.9697 17.6282 24.5098 17.3018 24.1417 16.8846C23.4962 16.2286 22.8978 15.5277 22.2764 14.8497C22.0298 14.5656 21.7473 14.3146 21.4362 14.1029C21.3186 13.9991 21.1777 13.9252 21.0254 13.8876C20.8731 13.8499 20.714 13.8496 20.5615 13.8866C20.4091 13.9237 20.2678 13.997 20.1499 14.1003C20.0319 14.2037 19.9406 14.334 19.8838 14.4802C19.5544 15.1579 19.3863 15.9026 19.3926 16.6561C19.3423 17.755 19.0097 18.0425 17.907 18.0939C15.5902 18.2744 13.271 17.7755 11.2336 16.6583C9.45713 15.5891 7.92645 14.1573 6.74167 12.4562C4.40245 9.165 2.422 5.63322 0.834098 1.92111C0.461046 1.0912 0.733451 0.646178 1.65022 0.629776C3.17306 0.600254 4.69481 0.604628 6.21765 0.629776C6.50225 0.633028 6.77846 0.726614 7.00637 0.897015C7.23428 1.06742 7.4021 1.30581 7.48559 1.57778C8.29324 3.6013 9.33174 5.52496 10.5805 7.31059C10.891 7.80511 11.2874 8.2402 11.7511 8.59537C11.8412 8.68754 11.9548 8.75343 12.0796 8.78596C12.2044 8.81849 12.3357 8.81644 12.4594 8.78002C12.5831 8.7436 12.6946 8.67419 12.7818 8.57924C12.869 8.4843 12.9287 8.3674 12.9545 8.2411C13.1073 7.85692 13.1981 7.45096 13.2236 7.03833C13.3643 5.63559 13.3393 4.22118 13.1492 2.82428C13.1194 2.42603 12.9549 2.04979 12.6827 1.75745C12.4105 1.46511 12.0468 1.2741 11.6515 1.21585C11.2063 1.13166 11.2719 0.966551 11.4885 0.712877C11.649 0.48443 11.8641 0.299668 12.1142 0.175361C12.3643 0.0510551 12.6414 -0.00885872 12.9206 0.00105821H18.1838C19.0141 0.163978 19.2012 0.536836 19.3139 1.3733V7.22749C19.304 7.55552 19.4769 8.51008 20.0578 8.7222C20.5238 8.87638 20.8312 8.50352 21.1102 8.2072C22.3237 6.84436 23.3253 5.30697 24.0815 3.64653C24.437 2.92487 24.7445 2.17697 25.0431 1.42798C25.1158 1.17468 25.2745 0.954595 25.4919 0.805538C25.7093 0.656482 25.9719 0.587763 26.2345 0.611189L31.3095 0.617749C31.4599 0.61404 31.6103 0.623185 31.7592 0.645084C32.6147 0.791603 32.8532 1.15899 32.584 1.99328C32.1039 3.26005 31.4231 4.44144 30.5678 5.49223C29.7199 6.66329 28.8174 7.79389 27.9761 8.97041C27.2081 10.0376 27.2694 10.5799 28.2266 11.5137Z" fill="#373841"/>
</svg>
