<svg width="33" height="23" viewBox="0 0 33 23" fill="none" xmlns="http://www.w3.org/2000/svg">
<path d="M16.7292 22.4047C16.6295 22.4047 6.70512 22.3973 4.20279 21.7195C3.52711 21.5363 2.91117 21.1795 2.41624 20.6847C1.9213 20.1898 1.56462 19.574 1.38167 18.8986C0.927474 16.3586 0.706647 13.7825 0.721934 11.2023C0.707552 8.62222 0.928372 6.04618 1.38167 3.50612C1.56898 2.83005 1.9267 2.21331 2.42063 1.7149C2.91456 1.21649 3.52819 0.853073 4.20279 0.659409C6.67927 0.00862474 16.6344 0 16.7292 0C16.824 0 26.7791 0.0073897 29.2544 0.685239C29.93 0.868323 30.546 1.22488 31.0411 1.71952C31.5362 2.21416 31.8932 2.82966 32.0767 3.50488C32.544 6.05178 32.7645 8.63777 32.7352 11.227C32.75 13.807 32.5296 16.3831 32.0767 18.9232C31.8932 19.5984 31.5362 20.2139 31.0411 20.7085C30.546 21.2032 29.93 21.5598 29.2544 21.7428C26.7791 22.3973 16.8301 22.4047 16.7292 22.4047ZM13.5019 6.40326C12.7942 6.40326 12.4409 8.68534 12.404 10.9465C12.3621 13.557 12.7375 16.2142 13.5376 16.2364H13.5684C15.2639 15.8554 16.8754 15.1675 18.3232 14.2065C20.0365 13.2039 21.8692 11.8863 21.8717 11.1986C21.8717 9.91553 15.0589 6.56936 13.5376 6.40082L13.5019 6.40326Z" fill="#373841"/>
</svg>
