<svg width="20" height="19" viewBox="0 0 20 19" fill="none" xmlns="http://www.w3.org/2000/svg">
<path fill-rule="evenodd" clip-rule="evenodd" d="M0 7.5C0 3.35787 3.35787 0 7.5 0C11.6422 0 15 3.35787 15 7.5C15 11.6422 11.6422 15 7.5 15C3.35787 15 0 11.6422 0 7.5ZM7.5 2C4.46243 2 2 4.46243 2 7.5C2 10.5376 4.46243 13 7.5 13C10.5376 13 13 10.5376 13 7.5C13 4.46243 10.5376 2 7.5 2Z" fill="black"/>
<path d="M11.2895 12.5253L18.1644 18.7154C18.5235 19.0387 19.0767 19.0097 19.4001 18.6506C19.7235 18.2915 19.6945 17.7382 19.3353 17.4149L12.4605 11.2248C12.1014 10.9014 11.5481 10.9304 11.2248 11.2895C10.9014 11.6486 10.9304 12.2019 11.2895 12.5253Z" fill="black"/>
</svg>
